{"title":"60 Minutes AU - 18-9-2016","uid":15866654,"size":417479534,"categoryP":"video","categoryS":"tv_shows","magnet":"?xt=urn:btih:84d53c36de94f4a31e7b1459738e7333810b1f99&amp;dn=60+Minutes+AU+-+18-9-2016&amp;tr=udp%3A%2F%2Ftracker.leechers-paradise.org%3A6969&amp;tr=udp%3A%2F%2Fzer0day.ch%3A1337&amp;tr=udp%3A%2F%2Fopen.demonii.com%3A1337&amp;tr=udp%3A%2F%2Ftracker.coppersurfer.tk%3A6969&amp;tr=udp%3A%2F%2Fexodus.desync.com%3A6969","seeders":6,"leechers":3,"uploader":"Bullrout","files":1,"time":1474372876,"description":"60 Minutes AU - 18-9-2016\r\n\r\nAustralia's current affairs program with a proven record of excellence over three decades. Join television's top reporters as they investigate, analyse and uncover the issues affecting all Australians.\r\n\r\nComplete name : 60 Minutes AU - 21-8-2016.mp4\r\nFormat : MPEG-4\r\nFormat profile : Base Media / Version 2\r\nCodec ID : mp42 (mp42/isom/avc1)\r\nFile size : 382 MiB\r\nDuration : 47mn 50s\r\nOverall bit rate mode : Variable\r\nOverall bit rate : 1 116 Kbps\r\n\r\nVideo\r\nID : 2\r\nFormat : AVC\r\nFormat/Info : Advanced Video Codec\r\nFormat profile :   \r\nFormat settings, CABAC : Yes\r\nFormat settings, ReFrames : 3 frames\r\nCodec ID : avc1\r\nCodec ID/Info : Advanced Video Coding\r\nDuration : 47mn 50s\r\nBit rate mode : Variable\r\nBit rate : 984 Kbps\r\nMaximum bit rate : 1 000 Kbps\r\nWidth : 720 pixels\r\nHeight : 404 pixels\r\nDisplay aspect ratio : 16:9\r\nOriginal display aspect ratio : 16:9\r\nFrame rate mode : Constant\r\nFrame rate : 25.000 fps\r\nStandard : PAL\r\nColor space : YUV\r\nChroma subsampling : 4:2:0\r\nBit depth : 8 bits\r\nScan type : Progressive\r\nBits/(Pixel*Frame) : 0.135\r\nStream size : 337 MiB (88%)\r\nWriting library : x264 core 112\r\nColor range : Limited\r\nColor primaries : BT.601 PAL\r\nTransfer characteristics : BT.470 System B, BT.470 System G\r\nMatrix coefficients : BT.601\r\n\r\nAudio\r\nID : 1\r\nFormat : AAC\r\nFormat/Info : Advanced Audio Codec\r\nFormat profile : LC\r\nCodec ID : 40\r\nDuration : 47mn 50s\r\nBit rate mode : Variable\r\nBit rate : 128 Kbps\r\nMaximum bit rate : 576 Kbps\r\nChannel(s) : 2 channels\r\nChannel positions : Front: L R\r\nSampling rate : 48.0 KHz\r\nFrame rate : 46.875 fps (1024 spf)\r\nCompression mode : Lossy\r\nStream size : 43.8 MiB (11%)","torrent":{"xt":"urn:btih:84d53c36de94f4a31e7b1459738e7333810b1f99","amp;dn":"60+Minutes+AU+-+18-9-2016","amp;tr":["udp%3A%2F%2Ftracker.leechers-paradise.org%3A6969","udp%3A%2F%2Fzer0day.ch%3A1337","udp%3A%2F%2Fopen.demonii.com%3A1337","udp%3A%2F%2Ftracker.coppersurfer.tk%3A6969","udp%3A%2F%2Fexodus.desync.com%3A6969"],"infoHash":"84d53c36de94f4a31e7b1459738e7333810b1f99","infoHashBuffer":{"type":"Buffer","data":[132,213,60,54,222,148,244,163,30,123,20,89,115,142,115,51,129,11,31,153]},"announce":[],"urlList":[]}}